<?xml version="1.0" encoding="utf-8"?>
<!-- Generator: Adobe Illustrator 27.9.0, SVG Export Plug-In . SVG Version: 6.00 Build 0)  -->
<svg version="1.1" id="Outline" xmlns="http://www.w3.org/2000/svg" xmlns:xlink="http://www.w3.org/1999/xlink" x="0px" y="0px"
	 viewBox="0 0 31 29" style="enable-background:new 0 0 31 29;" xml:space="preserve">
<path d="M29.5,1.6c-1.8-1.7-4.8-1.7-6.6,0L2,20.9C0.8,22,0.1,23.5,0.1,25v2.4c0,0.7,0.6,1.2,1.3,1.2H4c1.7,0,3.3-0.6,4.5-1.7
	L29.5,7.7C31.3,6,31.3,3.3,29.5,1.6z M6.8,25.2c-0.7,0.7-1.7,1-2.7,1H2.7V25c0-0.9,0.4-1.8,1.1-2.5L19.7,7.9l3,2.7L6.8,25.2z
	 M27.7,6l-3.2,3l-3-2.7l3.2-3c0.8-0.8,2.1-0.7,3,0C28.5,4,28.5,5.2,27.7,6L27.7,6L27.7,6z"/>
</svg>
