<svg version="1.1" id="Layer_1" xmlns="http://www.w3.org/2000/svg" xmlns:xlink="http://www.w3.org/1999/xlink" x="0px" y="0px"
	 width="100%" viewBox="0 0 512 512" enable-background="new 0 0 512 512" xml:space="preserve">
<path fill="#FFFFFF" opacity="1.000000" stroke="none" 
	d="
M1.000003,406.000000 
	C1.000000,306.979095 1.000000,207.958206 1.343197,108.765999 
	C2.123733,107.774460 2.684569,106.996124 2.979235,106.127502 
	C5.806545,97.793114 7.764328,89.045410 11.559935,81.183075 
	C18.923330,65.930290 29.882065,53.278595 43.459610,43.122551 
	C61.132088,29.903477 81.107254,22.183155 103.195465,22.121784 
	C203.345108,21.843513 303.496002,21.956446 403.646210,22.086216 
	C411.305542,22.096138 419.046204,22.832636 426.606232,24.090237 
	C449.498138,27.898319 468.489288,38.914948 484.383209,55.788490 
	C498.043152,70.290428 506.922150,87.107735 511.076447,106.528008 
	C511.204895,107.128357 512.336243,107.514168 513.000000,108.000000 
	C513.000000,207.020889 513.000000,306.041779 512.656860,405.233978 
	C511.009491,409.653290 509.815002,413.938690 508.382843,418.143127 
	C500.972687,439.897308 488.232513,458.008942 469.731598,471.550323 
	C451.115265,485.176147 430.021240,492.043945 406.744385,492.028625 
	C305.432495,491.961945 204.120453,492.039215 102.808670,491.903381 
	C96.668373,491.895142 90.410744,491.017731 84.412048,489.649109 
	C62.629402,484.679260 44.049870,474.101593 28.875113,457.479828 
	C16.636871,444.074585 8.066161,428.869415 3.906753,411.162506 
	C3.472996,409.315948 1.994028,407.714935 1.000003,406.000000 
M98.500000,217.000000 
	C80.556923,199.051849 62.613853,181.103683 44.000000,162.484558 
	C44.000000,165.124741 44.000000,166.735611 44.000000,168.346466 
	C44.000000,234.327530 43.961815,300.308655 44.044392,366.289612 
	C44.055756,375.368774 44.463749,384.460297 45.049728,393.522705 
	C45.827511,405.551483 51.218418,415.884308 58.604446,424.964874 
	C72.518295,442.070770 91.341858,448.952698 112.890320,448.970001 
	C202.031357,449.041595 291.172516,449.030731 380.313538,448.956116 
	C390.062347,448.947968 399.808838,448.262421 409.559601,448.017944 
	C422.614380,447.690582 434.016724,443.295929 444.380951,435.308289 
	C460.466797,422.911011 469.673370,406.586914 469.807404,386.584625 
	C470.295227,313.775452 470.001617,240.961029 469.987640,168.148590 
	C469.987366,166.780304 469.802246,165.412033 469.637085,163.126251 
	C467.638580,165.000580 466.318329,166.171371 465.072754,167.416824 
	C421.477783,211.006180 377.948029,254.660965 334.257111,298.153900 
	C324.217377,308.148132 312.782928,316.325684 299.577148,321.830292 
	C274.699951,332.199921 249.371475,332.969025 223.734756,325.251770 
	C207.177414,320.267639 192.904831,311.184143 180.693237,299.100952 
	C153.334381,272.029785 126.216194,244.715363 98.500000,217.000000 
M457.524536,92.015068 
	C456.438385,90.598915 455.417389,89.126785 454.256134,87.775169 
	C440.478088,71.738594 422.435303,65.097618 401.887390,65.066071 
	C305.223907,64.917641 208.559998,64.951988 111.896545,65.105240 
	C105.269867,65.115746 98.440514,65.870766 92.058182,67.589493 
	C71.968567,72.999504 57.898533,85.749290 49.201859,104.567406 
	C49.628162,105.046043 49.939804,105.433456 50.289307,105.783020 
	C105.555176,161.057861 160.812073,216.341690 216.134125,271.560211 
	C218.399231,273.821106 221.100754,275.786102 223.901871,277.344421 
	C236.754623,284.494843 250.162552,288.526794 265.253052,286.134521 
	C278.287537,284.068207 289.934967,279.434662 299.248108,270.155273 
	C353.319946,216.279205 407.240112,162.250931 461.245178,108.307739 
	C462.503998,107.050362 464.157043,106.187584 465.515411,105.219673 
	C462.602386,100.288094 460.318085,96.420921 457.524536,92.015068 
z"/>
<path fill="#000000" opacity="1.000000" stroke="none" 
	d="
M1.000003,406.468658 
	C1.994028,407.714935 3.472996,409.315948 3.906753,411.162506 
	C8.066161,428.869415 16.636871,444.074585 28.875113,457.479828 
	C44.049870,474.101593 62.629402,484.679260 84.412048,489.649109 
	C90.410744,491.017731 96.668373,491.895142 102.808670,491.903381 
	C204.120453,492.039215 305.432495,491.961945 406.744385,492.028625 
	C430.021240,492.043945 451.115265,485.176147 469.731598,471.550323 
	C488.232513,458.008942 500.972687,439.897308 508.382843,418.143127 
	C509.815002,413.938690 511.009491,409.653290 512.656860,405.702637 
	C513.000000,441.645172 513.000000,477.290314 513.000000,512.936157 
	C342.333313,512.936768 171.666656,512.936768 1.000000,512.936768 
	C1.000000,477.561493 1.000000,442.249420 1.000003,406.468658 
z"/>
<path fill="#000000" opacity="1.000000" stroke="none" 
	d="
M513.000000,107.531342 
	C512.336243,107.514168 511.204895,107.128357 511.076447,106.528008 
	C506.922150,87.107735 498.043152,70.290428 484.383209,55.788490 
	C468.489288,38.914948 449.498138,27.898319 426.606232,24.090237 
	C419.046204,22.832636 411.305542,22.096138 403.646210,22.086216 
	C303.496002,21.956446 203.345108,21.843513 103.195465,22.121784 
	C81.107254,22.183155 61.132088,29.903477 43.459610,43.122551 
	C29.882065,53.278595 18.923330,65.930290 11.559935,81.183075 
	C7.764328,89.045410 5.806545,97.793114 2.979235,106.127502 
	C2.684569,106.996124 2.123733,107.774460 1.343197,108.297340 
	C1.000000,72.354828 1.000000,36.709648 1.000004,1.063917 
	C171.666672,1.063362 342.333344,1.063362 513.000000,1.063362 
	C513.000000,36.438709 513.000000,71.750694 513.000000,107.531342 
z"/>
<path fill="#000000" opacity="1.000000" stroke="none" 
	d="
M98.750000,217.250000 
	C126.216194,244.715363 153.334381,272.029785 180.693237,299.100952 
	C192.904831,311.184143 207.177414,320.267639 223.734756,325.251770 
	C249.371475,332.969025 274.699951,332.199921 299.577148,321.830292 
	C312.782928,316.325684 324.217377,308.148132 334.257111,298.153900 
	C377.948029,254.660965 421.477783,211.006180 465.072754,167.416824 
	C466.318329,166.171371 467.638580,165.000580 469.637085,163.126251 
	C469.802246,165.412033 469.987366,166.780304 469.987640,168.148590 
	C470.001617,240.961029 470.295227,313.775452 469.807404,386.584625 
	C469.673370,406.586914 460.466797,422.911011 444.380951,435.308289 
	C434.016724,443.295929 422.614380,447.690582 409.559601,448.017944 
	C399.808838,448.262421 390.062347,448.947968 380.313538,448.956116 
	C291.172516,449.030731 202.031357,449.041595 112.890320,448.970001 
	C91.341858,448.952698 72.518295,442.070770 58.604446,424.964874 
	C51.218418,415.884308 45.827511,405.551483 45.049728,393.522705 
	C44.463749,384.460297 44.055756,375.368774 44.044392,366.289612 
	C43.961815,300.308655 44.000000,234.327530 44.000000,168.346466 
	C44.000000,166.735611 44.000000,165.124741 44.000000,162.484558 
	C62.613853,181.103683 80.556923,199.051849 98.750000,217.250000 
z"/>
<path fill="#000000" opacity="1.000000" stroke="none" 
	d="
M457.779175,92.284409 
	C460.318085,96.420921 462.602386,100.288094 465.515411,105.219673 
	C464.157043,106.187584 462.503998,107.050362 461.245178,108.307739 
	C407.240112,162.250931 353.319946,216.279205 299.248108,270.155273 
	C289.934967,279.434662 278.287537,284.068207 265.253052,286.134521 
	C250.162552,288.526794 236.754623,284.494843 223.901871,277.344421 
	C221.100754,275.786102 218.399231,273.821106 216.134125,271.560211 
	C160.812073,216.341690 105.555176,161.057861 50.289307,105.783020 
	C49.939804,105.433456 49.628162,105.046043 49.201859,104.567406 
	C57.898533,85.749290 71.968567,72.999504 92.058182,67.589493 
	C98.440514,65.870766 105.269867,65.115746 111.896545,65.105240 
	C208.559998,64.951988 305.223907,64.917641 401.887390,65.066071 
	C422.435303,65.097618 440.478088,71.738594 454.256134,87.775169 
	C455.417389,89.126785 456.438385,90.598915 457.779175,92.284409 
z"/>
</svg>