<svg version="1.1" id="Layer_1" xmlns="http://www.w3.org/2000/svg" xmlns:xlink="http://www.w3.org/1999/xlink" x="0px" y="0px"
	 width="100%" viewBox="0 0 512 512" enable-background="new 0 0 512 512" xml:space="preserve">
<path fill="#FFFFFF" opacity="1.000000" stroke="none" 
	d="
M1.000005,465.000000 
	C1.000000,384.645782 1.000000,304.291534 1.397128,223.464737 
	C2.191288,222.590500 2.822682,222.252243 2.951019,221.777893 
	C6.036275,210.374161 12.347807,201.052658 20.667339,192.756073 
	C75.005226,138.567795 129.161530,84.197296 183.546799,30.056734 
	C197.223724,16.441343 213.816910,7.834407 232.803543,3.906084 
	C234.976440,3.456511 236.939590,1.993248 239.000000,1.000000 
	C250.687561,1.000000 262.375122,1.000000 274.231995,1.352390 
	C275.228912,2.135677 276.014465,2.811116 276.890259,2.961583 
	C296.986847,6.414319 314.918793,14.720276 329.346710,29.029615 
	C383.531464,82.769035 437.308044,136.919739 491.381348,190.771912 
	C500.293823,199.647949 507.661163,209.243210 511.065369,221.536209 
	C511.236786,222.155258 512.333923,222.517960 513.000000,223.000000 
	C513.000000,303.354218 513.000000,383.708466 512.663208,464.234833 
	C511.884827,465.220245 511.357239,465.999054 511.016083,466.852448 
	C509.121460,471.591248 507.883026,476.714081 505.296082,481.032227 
	C496.503540,495.708862 484.185974,506.215698 467.459747,511.063721 
	C466.838287,511.243835 466.480621,512.333923 466.000000,513.000000 
	C326.979095,513.000000 187.958206,513.000000 48.763420,512.671448 
	C47.950397,511.898254 47.372105,511.266205 46.663330,511.036102 
	C24.120392,503.717041 9.061756,489.176666 2.905337,465.942993 
	C2.785837,465.492035 1.657609,465.308350 1.000005,465.000000 
M145.500000,130.000000 
	C113.924194,161.576508 82.354759,193.159363 50.765137,224.722046 
	C46.446918,229.036591 44.033527,234.207901 44.029457,240.274811 
	C43.983101,309.427338 43.904106,378.580109 44.086575,447.732178 
	C44.120235,460.489777 52.264256,469.948669 66.357414,469.983398 
	C90.685631,470.043335 115.014107,470.000000 139.342468,470.000000 
	C142.791534,470.000000 146.240601,470.000000 150.000000,470.000000 
	C150.000000,443.245331 149.937820,416.954102 150.045517,390.663544 
	C150.071121,384.415100 150.377014,378.137787 151.049515,371.927368 
	C153.578568,348.571625 163.859619,328.697388 179.812897,311.898773 
	C190.019653,301.151184 202.246552,292.877075 216.185593,287.344238 
	C238.102997,278.644592 260.455170,277.053070 283.356567,282.727966 
	C305.397736,288.189728 323.645569,299.626099 338.412964,316.869476 
	C354.955200,336.185211 363.624054,358.513947 363.927338,383.860168 
	C364.250305,410.850800 364.000000,437.848297 364.000000,464.842773 
	C364.000000,466.455383 364.000000,468.068024 364.000000,470.000000 
	C366.092194,470.000000 367.722687,470.000000 369.353210,470.000000 
	C395.347900,470.000000 421.342621,469.975128 447.337280,470.009857 
	C461.695923,470.029053 469.908142,460.315857 469.934082,447.537720 
	C470.073547,378.885345 470.020569,310.232544 469.967560,241.579956 
	C469.962341,234.853638 467.546173,229.008118 462.689819,224.156052 
	C408.819244,170.332962 355.002777,116.455727 301.114716,62.650143 
	C291.186829,52.737450 278.844299,46.815166 265.176483,45.210457 
	C244.898163,42.829628 226.818527,48.831268 212.121155,63.419430 
	C190.005646,85.370598 168.033249,107.465950 145.500000,130.000000 
M316.380676,470.000000 
	C317.822693,470.000000 319.264709,470.000000 321.000000,470.000000 
	C321.000000,446.047882 321.170807,422.585754 320.908325,399.128510 
	C320.815125,390.797913 320.133636,382.409668 318.903320,374.169739 
	C316.520142,358.208069 307.678009,345.698639 295.231140,336.184174 
	C281.390564,325.604340 265.568024,321.116943 247.843933,323.907104 
	C230.171875,326.689056 216.620438,335.513458 205.808075,349.495789 
	C196.171799,361.957245 193.400085,376.440552 193.124069,391.445343 
	C192.667526,416.263428 192.997467,441.096039 193.007339,465.922516 
	C193.007858,467.198029 193.114899,468.473480 193.183655,470.000000 
	C234.147949,470.000000 274.774109,470.000000 316.380676,470.000000 
z"/>
<path fill="#000000" opacity="1.000000" stroke="none" 
	d="
M238.531342,1.000000 
	C236.939590,1.993248 234.976440,3.456511 232.803543,3.906084 
	C213.816910,7.834407 197.223724,16.441343 183.546799,30.056734 
	C129.161530,84.197296 75.005226,138.567795 20.667339,192.756073 
	C12.347807,201.052658 6.036275,210.374161 2.951019,221.777893 
	C2.822682,222.252243 2.191288,222.590500 1.397128,222.996078 
	C1.000000,149.070419 1.000000,75.140839 1.000000,1.000000 
	C80.020767,1.000000 159.041733,1.000000 238.531342,1.000000 
z"/>
<path fill="#000000" opacity="1.000000" stroke="none" 
	d="
M513.000000,222.531342 
	C512.333923,222.517960 511.236786,222.155258 511.065369,221.536209 
	C507.661163,209.243210 500.293823,199.647949 491.381348,190.771912 
	C437.308044,136.919739 383.531464,82.769035 329.346710,29.029615 
	C314.918793,14.720276 296.986847,6.414319 276.890259,2.961583 
	C276.014465,2.811116 275.228912,2.135677 274.700653,1.352390 
	C354.257843,1.000000 433.515656,1.000000 513.000000,1.000000 
	C513.000000,74.687408 513.000000,148.375046 513.000000,222.531342 
z"/>
<path fill="#000000" opacity="1.000000" stroke="none" 
	d="
M466.468658,513.000000 
	C466.480621,512.333923 466.838287,511.243835 467.459747,511.063721 
	C484.185974,506.215698 496.503540,495.708862 505.296082,481.032227 
	C507.883026,476.714081 509.121460,471.591248 511.016083,466.852448 
	C511.357239,465.999054 511.884827,465.220245 512.663208,464.703491 
	C513.000000,480.925964 513.000000,496.851929 513.000000,513.000000 
	C497.646484,513.000000 482.291901,513.000000 466.468658,513.000000 
z"/>
<path fill="#000000" opacity="1.000000" stroke="none" 
	d="
M1.000005,465.468628 
	C1.657609,465.308350 2.785837,465.492035 2.905337,465.942993 
	C9.061756,489.176666 24.120392,503.717041 46.663330,511.036102 
	C47.372105,511.266205 47.950397,511.898254 48.294762,512.671448 
	C32.405834,513.000000 16.811668,513.000000 1.000000,513.000000 
	C1.000000,497.313110 1.000000,481.625214 1.000005,465.468628 
z"/>
<path fill="#000000" opacity="1.000000" stroke="none" 
	d="
M145.750000,129.750000 
	C168.033249,107.465950 190.005646,85.370598 212.121155,63.419430 
	C226.818527,48.831268 244.898163,42.829628 265.176483,45.210457 
	C278.844299,46.815166 291.186829,52.737450 301.114716,62.650143 
	C355.002777,116.455727 408.819244,170.332962 462.689819,224.156052 
	C467.546173,229.008118 469.962341,234.853638 469.967560,241.579956 
	C470.020569,310.232544 470.073547,378.885345 469.934082,447.537720 
	C469.908142,460.315857 461.695923,470.029053 447.337280,470.009857 
	C421.342621,469.975128 395.347900,470.000000 369.353210,470.000000 
	C367.722687,470.000000 366.092194,470.000000 364.000000,470.000000 
	C364.000000,468.068024 364.000000,466.455383 364.000000,464.842773 
	C364.000000,437.848297 364.250305,410.850800 363.927338,383.860168 
	C363.624054,358.513947 354.955200,336.185211 338.412964,316.869476 
	C323.645569,299.626099 305.397736,288.189728 283.356567,282.727966 
	C260.455170,277.053070 238.102997,278.644592 216.185593,287.344238 
	C202.246552,292.877075 190.019653,301.151184 179.812897,311.898773 
	C163.859619,328.697388 153.578568,348.571625 151.049515,371.927368 
	C150.377014,378.137787 150.071121,384.415100 150.045517,390.663544 
	C149.937820,416.954102 150.000000,443.245331 150.000000,470.000000 
	C146.240601,470.000000 142.791534,470.000000 139.342468,470.000000 
	C115.014107,470.000000 90.685631,470.043335 66.357414,469.983398 
	C52.264256,469.948669 44.120235,460.489777 44.086575,447.732178 
	C43.904106,378.580109 43.983101,309.427338 44.029457,240.274811 
	C44.033527,234.207901 46.446918,229.036591 50.765137,224.722046 
	C82.354759,193.159363 113.924194,161.576508 145.750000,129.750000 
z"/>
<path fill="#000000" opacity="1.000000" stroke="none" 
	d="
M315.890472,470.000000 
	C274.774109,470.000000 234.147949,470.000000 193.183655,470.000000 
	C193.114899,468.473480 193.007858,467.198029 193.007339,465.922516 
	C192.997467,441.096039 192.667526,416.263428 193.124069,391.445343 
	C193.400085,376.440552 196.171799,361.957245 205.808075,349.495789 
	C216.620438,335.513458 230.171875,326.689056 247.843933,323.907104 
	C265.568024,321.116943 281.390564,325.604340 295.231140,336.184174 
	C307.678009,345.698639 316.520142,358.208069 318.903320,374.169739 
	C320.133636,382.409668 320.815125,390.797913 320.908325,399.128510 
	C321.170807,422.585754 321.000000,446.047882 321.000000,470.000000 
	C319.264709,470.000000 317.822693,470.000000 315.890472,470.000000 
z"/>
</svg>