<svg version="1.1" id="Layer_1" xmlns="http://www.w3.org/2000/svg" xmlns:xlink="http://www.w3.org/1999/xlink" x="0px" y="0px"
	 width="100%" viewBox="0 0 512 512" enable-background="new 0 0 512 512" xml:space="preserve">
<path fill="#FFFFFF" opacity="1.000000" stroke="none" 
	d="
M395.000000,513.000000 
	C381.979095,513.000000 368.958221,513.000000 355.770630,512.630859 
	C350.272064,511.178833 344.973602,509.879425 339.602600,509.049957 
	C314.777161,505.216095 291.440765,496.716644 268.782990,486.266663 
	C243.565872,474.636230 219.964554,460.278320 197.293243,444.183868 
	C175.664307,428.829437 155.518402,411.770782 136.332687,393.597229 
	C124.708832,382.586609 114.039459,370.541962 103.274376,358.660095 
	C95.597572,350.186920 87.900620,341.625397 81.232506,332.368591 
	C69.650932,316.290894 58.297703,299.991669 47.878990,283.148041 
	C35.366638,262.919647 24.803648,241.613068 16.965084,219.052277 
	C10.449492,200.299225 4.569233,181.407104 2.906909,161.467117 
	C2.862033,160.928833 1.661581,160.486877 1.000002,160.000000 
	C1.000000,146.645767 1.000000,133.291550 1.427476,119.461395 
	C2.243023,117.059799 2.659854,115.139389 3.014655,113.207596 
	C6.083129,96.500641 11.104604,80.457489 19.757891,65.750206 
	C25.570887,55.870319 31.933289,46.361023 40.729359,38.756500 
	C48.662018,31.898422 56.685505,25.133787 64.383408,18.019011 
	C72.252335,10.746166 81.082085,5.466199 91.532516,2.926352 
	C92.141754,2.778287 92.516258,1.664414 93.000000,1.000000 
	C103.687561,1.000000 114.375122,1.000000 125.236572,1.328564 
	C126.216354,2.109062 126.973671,2.710698 127.835472,2.990267 
	C139.093445,6.642336 149.502609,11.859613 157.313950,20.953081 
	C163.115204,27.706547 168.148422,35.114307 173.654984,42.127586 
	C182.588852,53.505920 192.015030,64.519333 200.529449,76.199905 
	C211.326599,91.012077 216.962616,107.388519 214.134857,126.220131 
	C212.599625,136.444107 210.039795,146.182587 203.892456,154.430145 
	C195.152115,166.156601 185.910904,177.522369 176.569809,188.781845 
	C173.074722,192.994720 171.470840,196.469315 174.830841,201.724838 
	C178.171387,206.949966 180.262100,212.957275 183.150024,218.491577 
	C194.772659,240.764771 209.468475,260.920258 226.769791,279.031891 
	C235.251175,287.910461 244.841354,295.776581 254.276031,303.687897 
	C273.053009,319.433044 294.098541,331.519623 316.599518,341.104279 
	C317.675507,341.562592 319.567871,341.586456 320.388397,340.937744 
	C330.987244,332.558716 341.350250,323.878998 352.014313,315.585815 
	C356.960999,311.738922 362.043549,307.616943 367.745453,305.284180 
	C379.798462,300.353027 392.306854,297.637360 405.679749,299.862091 
	C418.265350,301.955841 429.313599,306.849976 439.201202,314.699219 
	C449.390808,322.788239 459.525909,330.946899 469.775818,338.958771 
	C477.689117,345.144226 486.034515,350.808777 493.657990,357.324738 
	C502.507660,364.888794 507.345703,375.177856 511.035706,386.037384 
	C511.302765,386.823334 512.327515,387.351807 513.000000,388.000000 
	C513.000000,398.687561 513.000000,409.375122 512.663208,420.234863 
	C511.898224,420.888000 511.313782,421.299835 511.065735,421.860474 
	C508.040131,428.698303 506.276093,436.496857 501.837189,442.227844 
	C490.593811,456.744141 479.182861,471.274902 464.653381,482.871765 
	C444.772552,498.739929 422.228912,508.128540 396.965332,511.076019 
	C396.245209,511.160034 395.652252,512.334167 395.000000,513.000000 
M401.394257,343.890564 
	C394.849304,341.594788 388.770325,343.006897 383.551605,347.070618 
	C368.667023,358.661041 353.907440,370.416534 339.267792,382.315155 
	C331.952515,388.260681 323.932312,391.189148 314.909851,387.885223 
	C295.720825,380.858459 277.060669,372.425903 259.978607,361.218445 
	C244.717499,351.205658 229.942978,340.336578 215.730484,328.881653 
	C206.673416,321.581909 198.567169,312.933105 190.873077,304.154327 
	C181.125748,293.032898 171.856018,281.442291 163.049316,269.558289 
	C147.927673,249.152740 137.022995,226.398834 127.420029,202.979706 
	C123.551277,193.544830 123.866730,184.550262 130.254013,176.445084 
	C141.441544,162.248566 152.874329,148.243942 164.304886,134.240982 
	C169.375381,128.029388 172.976379,121.083725 170.417938,113.200180 
	C168.688431,107.870956 165.161636,102.955009 161.739960,98.376457 
	C150.962814,83.955475 139.637527,69.942245 128.941635,55.462982 
	C119.385323,42.526379 104.941757,40.244865 93.640038,50.797710 
	C88.611397,55.493149 83.628181,60.353878 78.034012,64.303452 
	C65.181450,73.377571 57.626663,86.279266 52.165302,100.310730 
	C44.122929,120.973412 43.327332,142.442032 46.882965,164.312149 
	C50.556496,186.907440 58.051239,208.086227 67.890587,228.647369 
	C77.519516,248.768784 88.476082,268.088776 102.076347,285.733887 
	C115.492371,303.139923 128.909363,320.653748 143.703094,336.863434 
	C164.918274,360.109161 188.287277,381.197144 213.552399,400.101990 
	C232.938416,414.607727 253.122284,427.833038 274.543579,439.139191 
	C292.895447,448.825256 311.763275,457.492218 331.979919,462.269318 
	C345.655396,465.500793 359.725861,467.401367 373.729980,468.760529 
	C380.925781,469.458923 388.402069,467.950928 395.683685,466.947113 
	C413.666229,464.468262 429.304474,456.832275 442.233185,444.131470 
	C448.555328,437.920746 454.319397,431.115448 460.039764,424.329498 
	C463.036926,420.774078 465.786072,416.886322 467.955444,412.782928 
	C472.013000,405.108185 467.918457,392.711273 462.248413,388.516327 
	C448.150391,378.086029 434.624268,366.886292 420.656616,356.274384 
	C414.790741,351.817841 408.389862,348.065552 401.394257,343.890564 
z"/>
<path fill="#000000" opacity="1.000000" stroke="none" 
	d="
M513.000000,387.531342 
	C512.327515,387.351807 511.302765,386.823334 511.035706,386.037384 
	C507.345703,375.177856 502.507660,364.888794 493.657990,357.324738 
	C486.034515,350.808777 477.689117,345.144226 469.775818,338.958771 
	C459.525909,330.946899 449.390808,322.788239 439.201202,314.699219 
	C429.313599,306.849976 418.265350,301.955841 405.679749,299.862091 
	C392.306854,297.637360 379.798462,300.353027 367.745453,305.284180 
	C362.043549,307.616943 356.960999,311.738922 352.014313,315.585815 
	C341.350250,323.878998 330.987244,332.558716 320.388397,340.937744 
	C319.567871,341.586456 317.675507,341.562592 316.599518,341.104279 
	C294.098541,331.519623 273.053009,319.433044 254.276031,303.687897 
	C244.841354,295.776581 235.251175,287.910461 226.769791,279.031891 
	C209.468475,260.920258 194.772659,240.764771 183.150024,218.491577 
	C180.262100,212.957275 178.171387,206.949966 174.830841,201.724838 
	C171.470840,196.469315 173.074722,192.994720 176.569809,188.781845 
	C185.910904,177.522369 195.152115,166.156601 203.892456,154.430145 
	C210.039795,146.182587 212.599625,136.444107 214.134857,126.220131 
	C216.962616,107.388519 211.326599,91.012077 200.529449,76.199905 
	C192.015030,64.519333 182.588852,53.505920 173.654984,42.127586 
	C168.148422,35.114307 163.115204,27.706547 157.313950,20.953081 
	C149.502609,11.859613 139.093445,6.642336 127.835472,2.990267 
	C126.973671,2.710698 126.216354,2.109062 125.705231,1.328564 
	C180.354233,1.000000 234.708450,1.000000 289.819153,1.296317 
	C287.539246,4.400922 283.771088,6.741506 281.615997,10.113121 
	C276.867950,17.541433 276.168701,25.590071 280.938293,33.500759 
	C285.242920,40.640202 291.581818,43.545799 299.960999,44.174313 
	C313.741333,45.207954 327.763367,46.030235 341.102234,49.307472 
	C368.250122,55.977463 392.473206,69.051674 413.273743,87.883705 
	C427.763702,101.002403 439.692932,116.219749 449.129333,133.446518 
	C462.959076,158.693665 469.548859,185.772568 469.845215,214.354050 
	C469.941010,223.593262 476.509857,232.469360 484.195221,234.969025 
	C492.663086,237.723206 502.802155,235.734589 508.925659,227.648666 
	C510.006012,226.222076 511.628082,225.205765 513.000000,224.000000 
	C513.000000,278.354218 513.000000,332.708466 513.000000,387.531342 
M330.695129,89.959984 
	C320.884094,88.639992 311.076599,87.292702 301.261108,86.006775 
	C288.461060,84.329857 276.455566,95.940544 277.956177,109.763000 
	C278.992065,119.304955 286.728149,128.933014 297.313629,129.101440 
	C302.979584,129.191574 308.677094,130.048737 314.277466,131.031937 
	C338.125244,135.218719 356.562866,147.748917 370.222870,167.619034 
	C380.478851,182.537552 384.106476,199.397812 384.966766,217.071640 
	C385.282501,223.558517 388.260651,228.384720 393.467712,231.922668 
	C401.094421,237.104645 409.142242,237.841125 417.233429,233.210388 
	C424.610107,228.988632 428.539642,222.526505 427.963226,213.854965 
	C427.475403,206.516373 426.793030,199.184967 425.973389,191.875443 
	C424.577911,179.430252 420.431854,167.676254 414.754883,156.729446 
	C406.949768,141.678986 396.966736,128.155899 383.738831,117.070023 
	C368.278381,104.113121 351.239929,94.603226 330.695129,89.959984 
z"/>
<path fill="#000000" opacity="1.000000" stroke="none" 
	d="
M1.000002,160.468658 
	C1.661581,160.486877 2.862033,160.928833 2.906909,161.467117 
	C4.569233,181.407104 10.449492,200.299225 16.965084,219.052277 
	C24.803648,241.613068 35.366638,262.919647 47.878990,283.148041 
	C58.297703,299.991669 69.650932,316.290894 81.232506,332.368591 
	C87.900620,341.625397 95.597572,350.186920 103.274376,358.660095 
	C114.039459,370.541962 124.708832,382.586609 136.332687,393.597229 
	C155.518402,411.770782 175.664307,428.829437 197.293243,444.183868 
	C219.964554,460.278320 243.565872,474.636230 268.782990,486.266663 
	C291.440765,496.716644 314.777161,505.216095 339.602600,509.049957 
	C344.973602,509.879425 350.272064,511.178833 355.301971,512.630859 
	C237.073029,513.000000 119.146057,513.000000 1.000000,513.000000 
	C1.000000,395.645874 1.000000,278.291595 1.000002,160.468658 
z"/>
<path fill="#FFFFFF" opacity="1.000000" stroke="none" 
	d="
M513.000000,223.531342 
	C511.628082,225.205765 510.006012,226.222076 508.925659,227.648666 
	C502.802155,235.734589 492.663086,237.723206 484.195221,234.969025 
	C476.509857,232.469360 469.941010,223.593262 469.845215,214.354050 
	C469.548859,185.772568 462.959076,158.693665 449.129333,133.446518 
	C439.692932,116.219749 427.763702,101.002403 413.273743,87.883705 
	C392.473206,69.051674 368.250122,55.977463 341.102234,49.307472 
	C327.763367,46.030235 313.741333,45.207954 299.960999,44.174313 
	C291.581818,43.545799 285.242920,40.640202 280.938293,33.500759 
	C276.168701,25.590071 276.867950,17.541433 281.615997,10.113121 
	C283.771088,6.741506 287.539246,4.400922 290.287842,1.296317 
	C302.687561,1.000000 315.375122,1.000000 328.230835,1.359985 
	C329.064941,2.141176 329.679291,2.778454 330.404419,2.951488 
	C343.205933,6.006143 356.268738,8.220301 368.782440,12.174826 
	C396.339478,20.883276 420.741821,35.558815 442.162567,54.844196 
	C456.666229,67.901985 469.394623,82.611069 479.869476,99.260834 
	C496.104004,125.065628 506.790131,152.821823 511.073090,183.033463 
	C511.176849,183.765320 512.334106,184.347824 513.000000,185.000000 
	C513.000000,197.687561 513.000000,210.375122 513.000000,223.531342 
z"/>
<path fill="#000000" opacity="1.000000" stroke="none" 
	d="
M513.000000,184.531342 
	C512.334106,184.347824 511.176849,183.765320 511.073090,183.033463 
	C506.790131,152.821823 496.104004,125.065628 479.869476,99.260834 
	C469.394623,82.611069 456.666229,67.901985 442.162567,54.844196 
	C420.741821,35.558815 396.339478,20.883276 368.782440,12.174826 
	C356.268738,8.220301 343.205933,6.006143 330.404419,2.951488 
	C329.679291,2.778454 329.064941,2.141176 328.699524,1.359985 
	C390.260345,1.000000 451.520721,1.000000 513.000000,1.000000 
	C513.000000,62.020721 513.000000,123.041702 513.000000,184.531342 
z"/>
<path fill="#000000" opacity="1.000000" stroke="none" 
	d="
M395.468658,513.000000 
	C395.652252,512.334167 396.245209,511.160034 396.965332,511.076019 
	C422.228912,508.128540 444.772552,498.739929 464.653381,482.871765 
	C479.182861,471.274902 490.593811,456.744141 501.837189,442.227844 
	C506.276093,436.496857 508.040131,428.698303 511.065735,421.860474 
	C511.313782,421.299835 511.898224,420.888000 512.663208,420.703491 
	C513.000000,451.602661 513.000000,482.205322 513.000000,513.000000 
	C473.979309,513.000000 434.958313,513.000000 395.468658,513.000000 
z"/>
<path fill="#000000" opacity="1.000000" stroke="none" 
	d="
M92.531342,1.000000 
	C92.516258,1.664414 92.141754,2.778287 91.532516,2.926352 
	C81.082085,5.466199 72.252335,10.746166 64.383408,18.019011 
	C56.685505,25.133787 48.662018,31.898422 40.729359,38.756500 
	C31.933289,46.361023 25.570887,55.870319 19.757891,65.750206 
	C11.104604,80.457489 6.083129,96.500641 3.014655,113.207596 
	C2.659854,115.139389 2.243023,117.059799 1.427476,118.992737 
	C1.000000,79.748764 1.000000,40.497536 1.000000,1.000000 
	C31.353785,1.000000 61.708233,1.000000 92.531342,1.000000 
z"/>
<path fill="#000000" opacity="1.000000" stroke="none" 
	d="
M401.813232,343.941833 
	C408.389862,348.065552 414.790741,351.817841 420.656616,356.274384 
	C434.624268,366.886292 448.150391,378.086029 462.248413,388.516327 
	C467.918457,392.711273 472.013000,405.108185 467.955444,412.782928 
	C465.786072,416.886322 463.036926,420.774078 460.039764,424.329498 
	C454.319397,431.115448 448.555328,437.920746 442.233185,444.131470 
	C429.304474,456.832275 413.666229,464.468262 395.683685,466.947113 
	C388.402069,467.950928 380.925781,469.458923 373.729980,468.760529 
	C359.725861,467.401367 345.655396,465.500793 331.979919,462.269318 
	C311.763275,457.492218 292.895447,448.825256 274.543579,439.139191 
	C253.122284,427.833038 232.938416,414.607727 213.552399,400.101990 
	C188.287277,381.197144 164.918274,360.109161 143.703094,336.863434 
	C128.909363,320.653748 115.492371,303.139923 102.076347,285.733887 
	C88.476082,268.088776 77.519516,248.768784 67.890587,228.647369 
	C58.051239,208.086227 50.556496,186.907440 46.882965,164.312149 
	C43.327332,142.442032 44.122929,120.973412 52.165302,100.310730 
	C57.626663,86.279266 65.181450,73.377571 78.034012,64.303452 
	C83.628181,60.353878 88.611397,55.493149 93.640038,50.797710 
	C104.941757,40.244865 119.385323,42.526379 128.941635,55.462982 
	C139.637527,69.942245 150.962814,83.955475 161.739960,98.376457 
	C165.161636,102.955009 168.688431,107.870956 170.417938,113.200180 
	C172.976379,121.083725 169.375381,128.029388 164.304886,134.240982 
	C152.874329,148.243942 141.441544,162.248566 130.254013,176.445084 
	C123.866730,184.550262 123.551277,193.544830 127.420029,202.979706 
	C137.022995,226.398834 147.927673,249.152740 163.049316,269.558289 
	C171.856018,281.442291 181.125748,293.032898 190.873077,304.154327 
	C198.567169,312.933105 206.673416,321.581909 215.730484,328.881653 
	C229.942978,340.336578 244.717499,351.205658 259.978607,361.218445 
	C277.060669,372.425903 295.720825,380.858459 314.909851,387.885223 
	C323.932312,391.189148 331.952515,388.260681 339.267792,382.315155 
	C353.907440,370.416534 368.667023,358.661041 383.551605,347.070618 
	C388.770325,343.006897 394.849304,341.594788 401.813232,343.941833 
z"/>
<path fill="#FFFFFF" opacity="1.000000" stroke="none" 
	d="
M331.122742,89.978584 
	C351.239929,94.603226 368.278381,104.113121 383.738831,117.070023 
	C396.966736,128.155899 406.949768,141.678986 414.754883,156.729446 
	C420.431854,167.676254 424.577911,179.430252 425.973389,191.875443 
	C426.793030,199.184967 427.475403,206.516373 427.963226,213.854965 
	C428.539642,222.526505 424.610107,228.988632 417.233429,233.210388 
	C409.142242,237.841125 401.094421,237.104645 393.467712,231.922668 
	C388.260651,228.384720 385.282501,223.558517 384.966766,217.071640 
	C384.106476,199.397812 380.478851,182.537552 370.222870,167.619034 
	C356.562866,147.748917 338.125244,135.218719 314.277466,131.031937 
	C308.677094,130.048737 302.979584,129.191574 297.313629,129.101440 
	C286.728149,128.933014 278.992065,119.304955 277.956177,109.763000 
	C276.455566,95.940544 288.461060,84.329857 301.261108,86.006775 
	C311.076599,87.292702 320.884094,88.639992 331.122742,89.978584 
z"/>
</svg>