<?xml version="1.0" standalone="no"?>
<!DOCTYPE svg PUBLIC "-//W3C//DTD SVG 20010904//EN"
 "http://www.w3.org/TR/2001/REC-SVG-20010904/DTD/svg10.dtd">
<svg version="1.0" xmlns="http://www.w3.org/2000/svg"
 width="2090.000000pt" height="2090.000000pt" viewBox="0 0 2090.000000 2090.000000"
 preserveAspectRatio="xMidYMid meet">
<metadata>
Created by potrace 1.14, written by Peter Selinger 2001-2017
</metadata>
<g transform="translate(0.000000,2090.000000) scale(0.100000,-0.100000)"
fill="#000000" stroke="none">
<path d="M10029 20595 c-2 -2 -62 -6 -134 -9 -71 -4 -155 -8 -185 -11 -30 -2
-95 -7 -145 -10 -49 -4 -97 -8 -105 -10 -8 -2 -53 -6 -100 -10 -47 -4 -93 -9
-102 -10 -9 -2 -48 -7 -85 -10 -37 -4 -76 -9 -87 -11 -10 -2 -44 -6 -75 -9
-31 -4 -63 -8 -71 -10 -8 -3 -64 -11 -125 -20 -193 -28 -449 -76 -485 -92
-103 -43 -159 -89 -214 -172 -59 -88 -82 -200 -64 -304 9 -50 105 -404 113
-417 2 -4 6 -18 9 -33 2 -14 23 -92 46 -173 23 -82 44 -155 45 -163 2 -9 4
-16 5 -16 1 0 3 -7 5 -15 1 -8 24 -89 49 -180 26 -91 49 -172 51 -180 2 -8 12
-49 23 -92 30 -110 17 -166 -53 -226 -19 -17 -59 -38 -88 -46 -312 -88 -613
-183 -802 -254 -137 -52 -311 -121 -372 -147 -32 -15 -67 -30 -78 -35 -224
-98 -478 -222 -714 -350 -120 -65 -167 -72 -243 -37 -63 28 -45 2 -308 447
-89 151 -170 286 -179 300 -9 14 -18 30 -21 35 -22 44 -252 423 -286 471 -110
156 -328 222 -501 152 -78 -32 -348 -211 -630 -417 -114 -84 -466 -362 -534
-423 -15 -13 -47 -40 -72 -61 -234 -195 -678 -628 -912 -890 -38 -44 -79 -89
-90 -101 -223 -246 -670 -823 -772 -996 -83 -141 -72 -317 28 -465 47 -70 87
-98 354 -245 22 -12 105 -59 185 -105 80 -45 166 -94 192 -108 118 -66 145
-81 173 -99 17 -10 37 -21 45 -25 39 -18 377 -217 394 -232 38 -34 59 -91 53
-150 -4 -45 -18 -78 -71 -171 -37 -63 -71 -122 -76 -130 -34 -52 -221 -424
-292 -580 -153 -337 -291 -710 -398 -1074 -44 -153 -68 -194 -132 -227 -57
-29 -103 -26 -263 16 -77 20 -189 49 -250 65 -60 16 -164 43 -230 60 -66 17
-187 49 -270 70 -82 21 -222 57 -310 80 -88 23 -190 43 -227 45 -168 10 -336
-89 -408 -240 -25 -52 -67 -230 -85 -360 -4 -22 -8 -47 -10 -55 -2 -8 -7 -33
-10 -55 -3 -23 -8 -52 -10 -65 -3 -14 -7 -45 -10 -70 -3 -25 -8 -57 -11 -72
-5 -27 -8 -49 -19 -143 -4 -27 -8 -61 -10 -75 -4 -23 -18 -153 -30 -275 -3
-27 -7 -86 -11 -130 -3 -44 -7 -105 -9 -135 -25 -328 -25 -1120 0 -1325 2 -16
6 -73 10 -125 3 -52 8 -108 10 -125 2 -16 6 -59 9 -95 7 -65 14 -130 21 -185
2 -16 6 -52 10 -80 5 -46 16 -125 30 -215 2 -19 7 -44 9 -56 2 -12 7 -45 11
-75 4 -30 8 -57 10 -60 2 -3 6 -27 10 -53 3 -27 7 -51 9 -55 2 -3 7 -24 10
-46 37 -237 81 -328 200 -419 101 -77 245 -101 386 -65 41 11 86 22 100 25 14
3 34 8 45 11 11 4 25 8 30 9 9 1 109 27 525 136 85 22 162 41 170 43 8 2 49
12 90 23 386 104 410 108 479 72 60 -30 88 -75 123 -196 35 -124 171 -541 192
-588 7 -17 37 -92 66 -166 133 -339 300 -685 506 -1047 87 -152 96 -181 78
-241 -23 -79 -40 -95 -179 -172 -33 -18 -163 -92 -290 -163 -126 -71 -259
-146 -295 -165 -36 -19 -77 -43 -92 -54 -14 -10 -28 -18 -31 -18 -4 0 -130
-70 -247 -137 -19 -11 -62 -35 -95 -53 -82 -45 -133 -91 -177 -158 -80 -120
-95 -283 -37 -409 16 -35 102 -168 141 -218 4 -5 64 -85 132 -177 137 -184
408 -523 450 -563 6 -5 26 -28 45 -50 35 -41 97 -110 178 -200 182 -199 567
-576 763 -745 41 -36 77 -67 80 -70 15 -15 156 -134 225 -191 365 -298 922
-688 1034 -724 112 -36 270 -17 362 44 101 68 110 83 657 1006 208 350 196
335 269 367 64 28 123 20 215 -30 40 -22 100 -55 133 -72 119 -65 380 -193
524 -257 170 -76 564 -233 583 -233 8 0 18 -4 24 -8 5 -5 41 -18 79 -31 39
-13 79 -27 90 -31 31 -14 294 -94 445 -135 74 -20 146 -43 160 -51 99 -54 123
-138 83 -279 -24 -83 -72 -257 -78 -282 -4 -18 -19 -72 -119 -433 -72 -259
-79 -281 -116 -415 -56 -198 -37 -334 65 -460 30 -37 155 -134 155 -120 0 3
10 1 22 -6 21 -11 153 -41 233 -53 39 -6 57 -9 115 -21 14 -2 43 -7 65 -10 23
-3 50 -7 60 -9 37 -7 100 -16 145 -21 25 -3 59 -7 75 -10 52 -8 177 -24 235
-29 75 -8 163 -16 205 -21 49 -5 158 -14 245 -20 249 -17 351 -19 725 -20 438
0 611 6 905 30 199 17 271 24 365 36 44 6 96 12 115 14 45 5 131 17 150 20 8
2 38 6 65 9 28 4 61 8 75 11 14 3 41 7 60 10 40 6 303 53 338 60 134 26 254
118 310 237 63 134 60 201 -24 504 -36 132 -72 263 -80 293 -8 29 -26 95 -40
145 -129 454 -176 637 -176 678 0 55 36 125 78 152 14 10 110 42 213 71 664
189 1233 420 1791 726 69 37 144 71 168 75 58 9 124 -11 164 -51 27 -26 109
-153 174 -270 6 -11 39 -67 74 -125 34 -58 74 -125 88 -150 13 -25 31 -52 38
-61 8 -8 14 -18 14 -21 0 -3 66 -115 146 -249 81 -134 155 -260 166 -279 95
-167 246 -255 422 -244 93 5 157 33 323 143 290 191 761 542 919 686 7 5 29
24 50 42 44 35 73 60 124 106 20 18 56 50 80 71 194 169 574 547 776 772 38
43 74 82 79 88 10 11 187 217 227 265 177 211 519 673 564 761 70 139 54 321
-39 447 -56 76 -67 84 -342 239 -115 65 -255 143 -310 174 -55 31 -118 67
-140 80 -22 12 -107 61 -190 108 -82 47 -166 94 -185 105 -169 94 -207 126
-225 186 -13 44 -6 108 16 148 12 21 47 83 79 138 171 300 343 651 465 955 25
63 50 124 55 135 20 44 162 454 176 510 2 6 17 57 34 115 17 58 33 113 35 123
14 64 87 132 157 145 49 10 42 11 503 -108 88 -23 167 -44 175 -46 8 -2 60
-15 115 -30 55 -14 109 -28 119 -30 10 -2 33 -8 51 -14 18 -6 41 -12 51 -14
10 -2 73 -18 139 -36 239 -63 321 -80 375 -78 148 5 278 79 358 204 28 45 60
142 75 230 3 16 19 104 36 196 17 92 33 189 36 216 3 27 7 58 9 69 3 11 7 42
10 69 4 27 8 63 10 79 3 17 7 53 11 80 3 28 8 64 10 80 2 17 7 62 10 100 4 39
8 86 10 105 4 33 9 96 20 245 25 327 25 1056 0 1330 -2 22 -6 81 -10 130 -6
87 -20 233 -31 325 -3 25 -7 61 -9 80 -13 109 -28 216 -40 280 -3 14 -7 48
-11 75 -3 28 -8 59 -10 70 -2 11 -9 47 -14 80 -13 79 -18 106 -37 195 -8 41
-17 84 -19 94 -30 153 -140 275 -294 325 -103 34 -173 28 -415 -37 -60 -16
-270 -71 -465 -122 -195 -51 -431 -112 -525 -137 -179 -48 -229 -53 -285 -29
-63 26 -77 46 -230 341 -35 66 -80 152 -100 190 -20 39 -63 120 -95 180 -32
61 -77 146 -100 190 -23 44 -71 134 -105 200 -35 66 -79 152 -100 190 -21 39
-52 99 -71 135 -40 78 -135 176 -204 210 -59 28 -152 47 -215 43 -103 -6 -131
-18 -440 -193 -124 -70 -225 -127 -275 -154 -22 -13 -61 -35 -87 -49 -27 -15
-69 -39 -95 -54 -27 -14 -66 -36 -88 -49 -22 -12 -78 -43 -125 -70 -47 -26
-96 -54 -110 -61 -14 -8 -43 -24 -65 -37 -22 -12 -67 -37 -100 -56 -33 -18
-184 -103 -335 -188 -287 -162 -326 -184 -425 -239 -59 -33 -212 -119 -269
-151 -80 -45 -217 -122 -266 -149 -30 -17 -77 -43 -105 -58 -76 -43 -97 -55
-415 -233 -162 -90 -306 -172 -320 -180 -14 -9 -27 -17 -30 -17 -3 0 -21 -10
-40 -21 -19 -12 -114 -65 -210 -119 -194 -109 -259 -164 -303 -258 -60 -125
-59 -225 0 -407 52 -159 77 -250 99 -370 5 -24 24 -133 29 -165 27 -164 27
-618 -1 -795 -5 -32 -32 -183 -39 -220 -11 -55 -51 -200 -77 -280 -92 -283
-211 -519 -404 -802 -87 -128 -116 -208 -113 -310 2 -80 33 -177 76 -238 17
-25 350 -363 740 -752 726 -724 734 -731 845 -767 55 -18 155 -19 218 -3 210
53 328 59 513 27 163 -29 376 -150 497 -282 82 -89 118 -142 172 -253 94 -194
106 -467 28 -678 -122 -329 -414 -561 -775 -617 -40 -6 -212 -7 -250 -1 -334
51 -589 230 -738 518 -33 64 -61 139 -72 193 -3 17 -8 41 -12 55 -3 14 -7 81
-8 150 -2 106 1 140 22 220 36 138 39 159 37 220 -3 81 -12 118 -46 190 -27
55 -66 99 -263 296 -214 214 -238 235 -311 270 -76 37 -83 38 -179 38 -142 -1
-211 -33 -405 -187 -23 -19 -264 -174 -307 -198 -21 -12 -73 -42 -117 -66
-231 -131 -536 -261 -836 -355 -69 -22 -132 -41 -140 -43 -8 -2 -60 -14 -115
-28 -97 -25 -213 -50 -285 -62 -19 -3 -60 -10 -90 -15 -30 -5 -71 -12 -90 -15
-100 -16 -219 -102 -278 -200 -60 -100 -64 -129 -60 -508 l3 -342 32 -68 c41
-86 123 -169 223 -222 349 -188 541 -562 484 -945 -17 -111 -38 -178 -84 -270
-140 -279 -414 -475 -720 -517 -69 -9 -219 -9 -285 0 -294 43 -578 244 -707
502 -70 140 -82 162 -105 193 -53 70 -162 133 -254 147 -24 4 -46 8 -49 10 -3
1 -27 6 -54 9 -27 4 -52 9 -56 11 -4 2 -17 6 -31 9 -13 2 -46 10 -74 16 -27 6
-57 13 -65 15 -581 125 -1329 428 -1919 776 -120 71 -408 260 -510 336 -173
127 -408 314 -496 393 -486 440 -821 818 -1147 1295 -211 309 -439 715 -576
1025 -206 467 -350 912 -447 1385 -34 165 -39 189 -50 265 -2 14 -11 70 -19
125 -8 55 -18 129 -21 165 -4 36 -9 73 -10 82 -2 9 -7 57 -10 105 -4 48 -9
104 -10 123 -7 67 -18 376 -18 490 1 107 11 400 18 480 1 19 6 73 9 120 4 47
9 97 12 112 2 15 6 49 9 75 3 27 9 82 15 123 6 41 13 89 15 105 37 257 130
669 210 925 15 47 32 105 39 130 7 25 18 56 25 68 6 12 9 22 7 22 -3 0 3 19
13 43 10 23 30 78 45 122 16 44 34 94 41 110 7 17 33 80 59 140 79 191 226
498 306 640 13 22 37 65 53 94 28 50 64 110 157 261 39 62 193 292 222 330 10
14 58 77 105 140 75 99 246 313 278 346 5 6 46 51 90 100 176 197 460 470 675
649 58 48 114 95 125 104 48 40 268 203 360 267 615 427 1280 743 2013 955
163 47 368 98 502 124 319 62 388 108 496 324 145 294 358 463 676 538 118 27
307 23 436 -10 371 -96 641 -386 708 -762 5 -27 9 -97 8 -155 -4 -292 -163
-580 -412 -746 -55 -36 -162 -95 -162 -89 0 2 -20 -4 -44 -15 -153 -65 -395
-76 -592 -27 -176 44 -375 173 -492 319 -89 112 -132 156 -179 189 -65 43
-157 71 -231 70 -137 -2 -694 -144 -984 -252 -46 -17 -90 -32 -98 -34 -8 -2
-66 -24 -128 -49 -616 -251 -1125 -550 -1632 -960 -68 -56 -132 -108 -140
-116 -9 -8 -52 -46 -96 -85 -117 -103 -425 -413 -540 -545 -187 -213 -383
-468 -522 -676 -196 -296 -288 -454 -436 -751 -120 -239 -273 -607 -325 -778
-7 -22 -16 -49 -21 -60 -10 -22 -75 -242 -96 -320 -31 -121 -83 -343 -88 -376
-3 -20 -8 -42 -10 -50 -3 -8 -7 -30 -10 -49 -3 -19 -8 -46 -10 -60 -3 -14 -7
-41 -10 -60 -3 -19 -7 -44 -10 -55 -2 -11 -7 -47 -11 -80 -4 -32 -8 -66 -10
-75 -5 -27 -14 -103 -20 -175 -4 -38 -8 -86 -11 -105 -22 -187 -22 -806 0
-1000 3 -19 7 -71 11 -114 4 -44 8 -87 10 -95 1 -9 6 -43 10 -76 4 -33 9 -76
11 -95 2 -19 9 -60 14 -90 5 -30 12 -71 15 -90 5 -29 35 -182 59 -300 12 -59
67 -274 96 -375 48 -168 173 -534 210 -610 5 -11 32 -75 59 -141 115 -280 409
-832 501 -941 5 -7 10 -15 10 -18 0 -5 92 -145 112 -170 4 -5 46 -63 93 -128
77 -107 206 -274 261 -337 12 -14 53 -61 90 -104 278 -322 636 -652 1002 -923
453 -337 1017 -648 1473 -814 354 -128 991 -328 1129 -355 14 -3 33 -7 42 -10
18 -5 48 -12 88 -18 84 -15 120 -17 135 -9 9 5 31 46 49 90 83 202 235 366
444 478 102 55 173 133 215 239 19 45 21 77 24 279 3 249 -2 287 -49 378 -71
136 -189 212 -363 234 -72 9 -116 15 -145 20 -14 3 -45 7 -70 10 -25 3 -55 7
-67 9 -11 3 -43 8 -70 12 -51 7 -73 11 -113 19 -14 2 -36 6 -50 9 -187 31
-633 177 -880 288 -73 33 -332 163 -370 186 -19 12 -42 25 -50 29 -62 29 -393
243 -455 295 -5 5 -32 25 -60 46 -202 150 -475 403 -667 617 -113 126 -311
380 -353 452 -11 18 -23 33 -27 33 -4 0 -8 6 -8 14 0 7 -7 19 -15 26 -8 7 -21
24 -28 39 -8 14 -50 85 -93 156 -71 116 -193 351 -254 490 -90 200 -224 599
-255 753 -2 9 -12 58 -24 107 -25 110 -68 365 -77 460 -3 39 -8 78 -9 87 -23
120 -23 684 0 878 2 19 7 60 10 90 6 56 8 69 20 150 13 88 16 106 41 225 13
66 27 133 30 149 3 16 7 33 10 38 3 4 7 16 9 25 29 150 130 452 224 671 99
231 216 455 328 630 29 45 53 87 53 92 0 6 5 10 10 10 6 0 10 5 10 10 0 6 4
16 10 23 5 7 48 65 94 129 165 229 285 368 501 583 189 188 288 274 502 436
114 87 421 289 438 289 2 0 39 21 82 46 108 64 373 192 523 252 191 77 497
176 639 207 9 2 57 13 106 24 50 11 106 23 125 26 19 3 42 8 50 10 8 3 60 11
115 19 183 27 171 25 325 40 220 22 668 22 810 1 14 -2 61 -7 105 -10 44 -4
82 -9 85 -10 3 -2 37 -7 75 -10 39 -4 73 -9 76 -10 3 -2 28 -7 55 -11 27 -3
51 -8 54 -9 3 -2 26 -6 50 -10 25 -3 61 -10 80 -15 19 -5 46 -11 60 -14 14 -2
63 -14 110 -26 47 -12 96 -24 109 -27 57 -10 447 -146 571 -198 161 -68 463
-218 553 -274 35 -23 67 -41 70 -41 4 0 181 -115 250 -162 315 -217 693 -566
923 -853 26 -33 51 -62 54 -65 3 -3 34 -43 69 -90 35 -47 76 -96 90 -108 111
-100 257 -137 397 -102 63 17 136 55 499 260 22 12 78 44 125 70 47 26 175 98
285 160 110 62 225 127 255 143 30 17 102 57 160 90 58 33 139 78 180 100 41
22 87 48 102 58 14 11 29 19 32 19 2 0 31 15 63 34 32 18 155 88 273 154 188
105 365 204 480 269 19 11 96 54 170 95 74 42 153 86 175 98 22 13 65 36 95
53 54 29 161 90 190 108 8 5 31 17 50 27 19 11 107 59 195 109 88 50 176 99
195 110 19 11 116 65 215 120 99 56 196 110 215 121 19 12 51 29 70 40 19 10
94 52 165 92 72 40 150 84 175 98 163 90 248 215 255 379 4 83 -7 137 -39 208
-19 41 -250 359 -367 505 -16 19 -88 112 -160 205 -73 94 -147 186 -165 205
-18 19 -45 49 -60 65 -15 17 -61 66 -103 111 -42 44 -132 140 -201 214 -175
187 -332 345 -419 420 -41 36 -79 70 -85 75 -6 6 -69 62 -141 125 -71 63 -135
119 -141 125 -35 33 -154 137 -184 161 -19 16 -37 31 -40 35 -3 3 -77 58 -165
122 -88 64 -171 125 -184 134 -169 127 -471 341 -526 372 -90 52 -160 70 -255
66 -169 -6 -300 -97 -397 -275 -24 -46 -339 -575 -368 -620 -13 -19 -33 -54
-46 -77 -60 -107 -226 -381 -248 -410 -14 -18 -47 -42 -73 -53 -77 -33 -114
-27 -230 35 -99 53 -465 235 -539 268 -372 167 -811 329 -1316 487 -156 49
-199 69 -234 107 -50 56 -55 95 -24 213 19 73 68 250 90 325 9 28 17 59 19 70
2 11 28 103 56 205 29 102 53 190 54 195 1 6 5 19 8 30 12 38 100 358 103 374
2 9 4 16 5 16 1 0 3 9 5 20 41 214 -71 419 -271 498 -36 14 -288 63 -424 82
-24 4 -47 8 -50 10 -3 1 -30 6 -60 9 -30 4 -66 8 -80 11 -22 3 -128 17 -230
30 -19 2 -60 7 -90 10 -30 3 -71 7 -90 10 -32 3 -93 9 -220 20 -59 5 -205 16
-300 22 -90 6 -996 13 -1001 8z"/>
<path d="M10255 13059 c-33 -4 -89 -10 -125 -13 -73 -7 -123 -14 -160 -22 -14
-3 -36 -8 -50 -10 -14 -2 -36 -7 -50 -10 -14 -3 -36 -8 -50 -11 -90 -16 -322
-92 -445 -145 -715 -308 -1255 -890 -1489 -1603 -37 -114 -80 -287 -91 -365
-4 -24 -8 -47 -10 -50 -1 -3 -6 -41 -10 -85 -4 -44 -9 -98 -11 -120 -10 -98
-3 -388 11 -475 2 -14 7 -47 11 -75 3 -27 15 -90 26 -140 10 -49 21 -99 23
-110 3 -11 15 -56 29 -101 161 -539 507 -1026 966 -1361 107 -78 205 -143 215
-143 4 0 19 -8 33 -19 25 -18 185 -100 262 -134 107 -48 354 -132 444 -152
136 -28 222 -45 262 -51 27 -3 57 -8 66 -9 122 -24 560 -23 673 0 11 2 40 7
65 10 25 3 56 7 70 10 14 3 41 8 60 11 54 8 221 51 313 80 567 179 1071 556
1411 1056 36 54 66 101 66 104 0 3 9 19 21 35 35 50 144 277 184 384 53 143
102 310 119 410 3 17 10 57 15 90 26 146 36 505 19 670 -89 867 -640 1654
-1438 2056 -258 129 -559 225 -830 264 -25 4 -56 8 -70 10 -114 17 -428 25
-535 14z"/>
</g>
</svg>
